<svg width="430" height="158" viewBox="0 0 430 158" fill="none" xmlns="http://www.w3.org/2000/svg">
<path d="M0 155.897V142.38L50.68 86.8099C56.6276 80.3017 61.5257 74.6445 65.3742 69.8384C69.2226 64.9823 72.0715 60.4265 73.9208 56.1711C75.82 51.8657 76.7697 47.36 76.7697 42.654C76.7697 37.2472 75.4702 32.5662 72.8712 28.6112C70.3222 24.6562 66.8236 21.6023 62.3753 19.4496C57.9271 17.2969 52.9291 16.2205 47.3813 16.2205C41.4836 16.2205 36.3356 17.4471 31.9374 19.9002C27.5891 22.3032 24.2154 25.6825 21.8164 30.038C19.4673 34.3935 18.2928 39.5 18.2928 45.3574H0.599762C0.599762 36.346 2.67394 28.436 6.8223 21.6274C10.9707 14.8188 16.6184 9.51204 23.7656 5.70722C30.9628 1.90241 39.0346 0 47.981 0C56.9775 0 64.9493 1.90241 71.8966 5.70722C78.8438 9.51204 84.2917 14.6435 88.2401 21.1017C92.1886 27.5599 94.1628 34.744 94.1628 42.654C94.1628 48.3112 93.1382 53.8432 91.089 59.25C89.0898 64.6068 85.5912 70.5894 80.5931 77.1977C75.6451 83.756 68.7728 91.7662 59.9763 101.228L25.4899 138.175V139.376H96.8617V155.897H0Z" fill="#0066FF"/>
<path d="M167.349 158C156.053 158 146.432 154.921 138.485 148.763C130.538 142.555 124.466 133.569 120.267 121.804C116.069 109.989 113.97 95.7212 113.97 79C113.97 62.379 116.069 48.186 120.267 36.4211C124.516 24.6061 130.613 15.5947 138.56 9.38688C146.557 3.12896 156.153 0 167.349 0C178.544 0 188.116 3.12896 196.062 9.38688C204.059 15.5947 210.157 24.6061 214.355 36.4211C218.604 48.186 220.728 62.379 220.728 79C220.728 95.7212 218.629 109.989 214.43 121.804C210.232 133.569 204.159 142.555 196.212 148.763C188.266 154.921 178.644 158 167.349 158ZM167.349 141.479C178.544 141.479 187.241 136.072 193.439 125.259C199.636 114.445 202.735 99.0253 202.735 79C202.735 65.6831 201.31 54.3438 198.462 44.9819C195.663 35.6201 191.614 28.4861 186.316 23.5798C181.068 18.6736 174.746 16.2205 167.349 16.2205C156.253 16.2205 147.582 21.7025 141.334 32.6664C135.087 43.5802 131.963 59.0247 131.963 79C131.963 92.3169 133.362 103.631 136.161 112.943C138.96 122.255 142.983 129.339 148.231 134.195C153.529 139.051 159.902 141.479 167.349 141.479Z" fill="#0066FF"/>
<path d="M292.639 2.10266V155.897H274.047V21.6274H273.147L235.662 46.5589V27.635L274.047 2.10266H292.639Z" fill="#0066FF"/>
<path d="M378.121 158C368.224 158 359.403 156.298 351.656 152.894C343.959 149.489 337.836 144.758 333.288 138.701C328.79 132.593 326.341 125.509 325.941 117.449H344.834C345.234 122.405 346.933 126.685 349.932 130.29C352.93 133.844 356.854 136.598 361.702 138.55C366.55 140.503 371.923 141.479 377.821 141.479C384.418 141.479 390.266 140.328 395.364 138.025C400.462 135.722 404.46 132.518 407.359 128.413C410.258 124.307 411.707 119.551 411.707 114.144C411.707 108.487 410.308 103.506 407.509 99.2006C404.71 94.8451 400.612 91.4408 395.214 88.9876C389.816 86.5345 383.219 85.308 375.422 85.308H363.126V68.7871H375.422C381.519 68.7871 386.867 67.6857 391.465 65.4829C396.113 63.2801 399.737 60.1762 402.336 56.1711C404.985 52.166 406.309 47.4601 406.309 42.0532C406.309 36.8466 405.16 32.3159 402.861 28.461C400.562 24.6061 397.313 21.6023 393.115 19.4496C388.966 17.2969 384.068 16.2205 378.42 16.2205C373.122 16.2205 368.124 17.1968 363.426 19.1492C358.778 21.0517 354.98 23.8302 352.031 27.4848C349.082 31.0894 347.483 35.4449 347.233 40.5513H329.24C329.54 32.4911 331.964 25.4322 336.512 19.3745C341.06 13.2668 347.008 8.51077 354.355 5.10647C361.752 1.70216 369.874 0 378.72 0C388.217 0 396.363 1.92744 403.161 5.78232C409.958 9.58713 415.181 14.6185 418.829 20.8764C422.478 27.1344 424.302 33.8929 424.302 41.1521C424.302 49.8131 422.028 57.1974 417.48 63.3051C412.982 69.4129 406.859 73.6432 399.112 75.9962V77.1977C408.808 78.7997 416.38 82.93 421.828 89.5884C427.276 96.1968 430 104.382 430 114.144C430 122.505 427.726 130.015 423.178 136.673C418.679 143.281 412.532 148.488 404.735 152.293C396.938 156.098 388.067 158 378.121 158Z" fill="#0066FF"/>
</svg>
