<svg width="152" height="31" viewBox="0 0 152 31" fill="none" xmlns="http://www.w3.org/2000/svg">
<path d="M6.1392 0.90909V30H0.869318V0.90909H6.1392ZM26.8629 13.9489L22.1754 14.4602C22.0429 13.9867 21.8108 13.5417 21.4794 13.125C21.1574 12.7083 20.7218 12.3722 20.1726 12.1165C19.6233 11.8608 18.951 11.733 18.1555 11.733C17.0855 11.733 16.1858 11.965 15.4567 12.429C14.737 12.893 14.3819 13.4943 14.3913 14.233C14.3819 14.8674 14.6139 15.3835 15.0874 15.7812C15.5703 16.179 16.3658 16.5057 17.4737 16.7614L21.1953 17.5568C23.2597 18.0019 24.7938 18.7074 25.7976 19.6733C26.8108 20.6392 27.3222 21.9034 27.3317 23.4659C27.3222 24.839 26.9197 26.0511 26.1243 27.1023C25.3383 28.1439 24.2446 28.9583 22.843 29.5455C21.4415 30.1326 19.8317 30.4261 18.0135 30.4261C15.343 30.4261 13.1934 29.8674 11.5646 28.75C9.93584 27.6231 8.9652 26.0559 8.6527 24.0483L13.6669 23.5653C13.8942 24.5502 14.3771 25.2936 15.1158 25.7955C15.8544 26.2973 16.8156 26.5483 17.9993 26.5483C19.2209 26.5483 20.201 26.2973 20.9396 25.7955C21.6877 25.2936 22.0618 24.6733 22.0618 23.9347C22.0618 23.3097 21.8203 22.7936 21.3374 22.3864C20.8639 21.9792 20.1252 21.6667 19.1214 21.4489L15.3999 20.6676C13.3071 20.232 11.7588 19.4981 10.755 18.4659C9.75118 17.4242 9.25402 16.108 9.26349 14.517C9.25402 13.1723 9.61861 12.0076 10.3572 11.0227C11.1054 10.0284 12.1423 9.26136 13.468 8.72159C14.8033 8.17235 16.3421 7.89773 18.0845 7.89773C20.6413 7.89773 22.6536 8.44223 24.1214 9.53125C25.5987 10.6203 26.5125 12.0928 26.8629 13.9489ZM34.2592 23.1534L34.245 16.946H35.0689L42.9098 8.18182H48.9183L39.2734 18.9205H38.2081L34.2592 23.1534ZM29.5717 30V0.90909H34.7138V30H29.5717ZM43.2649 30L36.1626 20.071L39.6286 16.4489L49.4155 30H43.2649ZM56.6236 30.4403C55.241 30.4403 53.9957 30.1941 52.8878 29.7017C51.7893 29.1998 50.9181 28.4612 50.2741 27.4858C49.6397 26.5104 49.3224 25.3078 49.3224 23.8778C49.3224 22.6468 49.5497 21.6288 50.0043 20.8239C50.4588 20.0189 51.0791 19.375 51.8651 18.892C52.651 18.4091 53.5365 18.0445 54.5213 17.7983C55.5156 17.5426 56.5431 17.358 57.6037 17.2443C58.8821 17.1117 59.919 16.9934 60.7145 16.8892C61.5099 16.7756 62.0876 16.6051 62.4474 16.3778C62.8168 16.1411 63.0014 15.7765 63.0014 15.2841V15.1989C63.0014 14.1288 62.6842 13.3002 62.0497 12.7131C61.4152 12.1259 60.5014 11.8324 59.3082 11.8324C58.0488 11.8324 57.0497 12.107 56.3111 12.6562C55.5819 13.2055 55.0895 13.8542 54.8338 14.6023L50.0327 13.9205C50.4115 12.5947 51.0365 11.4867 51.9077 10.5966C52.7789 9.69697 53.8442 9.02462 55.1037 8.57955C56.3632 8.125 57.7552 7.89773 59.2798 7.89773C60.331 7.89773 61.3774 8.02083 62.419 8.26705C63.4607 8.51326 64.4124 8.92045 65.2741 9.48864C66.1359 10.0473 66.8272 10.8097 67.348 11.7756C67.8783 12.7415 68.1435 13.9489 68.1435 15.3977V30H63.2003V27.0028H63.0298C62.7173 27.6089 62.277 28.1771 61.7088 28.7074C61.1501 29.2282 60.4446 29.6496 59.5923 29.9716C58.7495 30.2841 57.7599 30.4403 56.6236 30.4403ZM57.9588 26.6619C58.991 26.6619 59.8859 26.4583 60.6435 26.0511C61.401 25.6345 61.9834 25.0852 62.3906 24.4034C62.8073 23.7216 63.0156 22.9782 63.0156 22.1733V19.6023C62.8546 19.7348 62.58 19.858 62.1918 19.9716C61.813 20.0852 61.3868 20.1847 60.9134 20.2699C60.4399 20.3551 59.9711 20.4309 59.5071 20.4972C59.0431 20.5634 58.6406 20.6203 58.2997 20.6676C57.5327 20.7718 56.8461 20.9422 56.2401 21.179C55.634 21.4157 55.1558 21.7472 54.8054 22.1733C54.455 22.59 54.2798 23.1297 54.2798 23.7926C54.2798 24.7396 54.6255 25.4545 55.3168 25.9375C56.008 26.4205 56.8887 26.6619 57.9588 26.6619ZM76.456 17.2159V30H71.3139V8.18182H76.2287V11.8892H76.4844C76.9863 10.6676 77.7865 9.69697 78.8849 8.97727C79.9929 8.25758 81.3613 7.89773 82.9901 7.89773C84.4957 7.89773 85.8073 8.2197 86.9247 8.86364C88.0516 9.50758 88.9228 10.4403 89.5384 11.6619C90.1634 12.8835 90.4711 14.3655 90.4616 16.108V30H85.3196V16.9034C85.3196 15.4451 84.9408 14.304 84.1832 13.4801C83.4351 12.6562 82.3982 12.2443 81.0724 12.2443C80.1728 12.2443 79.3726 12.4432 78.6719 12.8409C77.9806 13.2292 77.4361 13.7926 77.0384 14.5312C76.6501 15.2699 76.456 16.1648 76.456 17.2159ZM101.786 30.3835C100.071 30.3835 98.5374 29.9432 97.1832 29.0625C95.8291 28.1818 94.759 26.9034 93.973 25.2273C93.187 23.5511 92.794 21.5152 92.794 19.1193C92.794 16.6951 93.1918 14.6496 93.9872 12.983C94.7921 11.3068 95.8764 10.0426 97.2401 9.19034C98.6037 8.3286 100.124 7.89773 101.8 7.89773C103.078 7.89773 104.129 8.11553 104.953 8.55114C105.777 8.97727 106.43 9.49337 106.913 10.0994C107.396 10.696 107.77 11.2595 108.036 11.7898H108.249V0.90909H113.405V30H108.348V26.5625H108.036C107.77 27.0928 107.387 27.6562 106.885 28.2528C106.383 28.84 105.72 29.3419 104.896 29.7585C104.072 30.1752 103.036 30.3835 101.786 30.3835ZM103.22 26.1648C104.309 26.1648 105.237 25.8712 106.004 25.2841C106.771 24.6875 107.354 23.8589 107.751 22.7983C108.149 21.7377 108.348 20.5019 108.348 19.0909C108.348 17.6799 108.149 16.4536 107.751 15.4119C107.363 14.3703 106.786 13.5606 106.018 12.983C105.261 12.4053 104.328 12.1165 103.22 12.1165C102.074 12.1165 101.118 12.4148 100.351 13.0114C99.5838 13.608 99.0062 14.4318 98.6179 15.483C98.2296 16.5341 98.0355 17.7367 98.0355 19.0909C98.0355 20.4545 98.2296 21.6714 98.6179 22.7415C99.0156 23.8021 99.598 24.6402 100.365 25.2557C101.142 25.8617 102.093 26.1648 103.22 26.1648ZM126.543 30.4261C124.356 30.4261 122.467 29.9716 120.876 29.0625C119.294 28.1439 118.077 26.8466 117.225 25.1705C116.373 23.4848 115.947 21.5009 115.947 19.2188C115.947 16.9744 116.373 15.0047 117.225 13.3097C118.087 11.6051 119.29 10.2794 120.833 9.33239C122.377 8.37595 124.19 7.89773 126.273 7.89773C127.618 7.89773 128.887 8.11553 130.08 8.55114C131.283 8.97727 132.344 9.64015 133.262 10.5398C134.19 11.4394 134.919 12.5852 135.45 13.9773C135.98 15.3598 136.245 17.0076 136.245 18.9205V20.4972H118.362V17.0312H131.316C131.307 16.0464 131.094 15.1705 130.677 14.4034C130.26 13.6269 129.678 13.0161 128.93 12.571C128.191 12.1259 127.329 11.9034 126.344 11.9034C125.293 11.9034 124.37 12.1591 123.575 12.6705C122.779 13.1723 122.159 13.8352 121.714 14.6591C121.278 15.4735 121.056 16.3684 121.046 17.3438V20.3693C121.046 21.6383 121.278 22.7273 121.742 23.6364C122.206 24.536 122.855 25.2273 123.688 25.7102C124.522 26.1837 125.497 26.4205 126.614 26.4205C127.362 26.4205 128.04 26.3163 128.646 26.108C129.252 25.8902 129.777 25.5729 130.222 25.1562C130.667 24.7396 131.004 24.2235 131.231 23.608L136.032 24.1477C135.729 25.4167 135.151 26.5246 134.299 27.4716C133.456 28.4091 132.377 29.1383 131.06 29.6591C129.744 30.1705 128.238 30.4261 126.543 30.4261ZM138.595 30V8.18182H143.581V11.8182H143.808C144.206 10.5587 144.888 9.58807 145.854 8.90625C146.829 8.21496 147.942 7.86932 149.192 7.86932C149.476 7.86932 149.793 7.88352 150.143 7.91193C150.503 7.93087 150.802 7.96401 151.038 8.01136V12.7415C150.821 12.6657 150.475 12.5994 150.001 12.5426C149.537 12.4763 149.088 12.4432 148.652 12.4432C147.714 12.4432 146.872 12.6468 146.124 13.054C145.385 13.4517 144.803 14.0057 144.376 14.7159C143.95 15.4261 143.737 16.2453 143.737 17.1733V30H138.595Z" fill="#262626" fill-opacity="0.5"/>
</svg>
